<svg width="206" height="36" viewBox="0 0 206 36" fill="none" xmlns="http://www.w3.org/2000/svg">
<path d="M14.9771 5.20703V4.70703H14.4771H4.65713H4.15713V5.20703V14.637V15.137H4.65713H14.4771H14.9771V14.637V5.20703ZM38.0405 15.5175C38.3417 15.7544 38.5774 16.1241 38.7171 16.6772V17.247C38.7171 17.7122 38.4453 18.1856 37.6469 18.6427C37.4482 18.7348 37.2938 18.767 37.1771 18.767H22.4071C21.8705 18.767 21.3686 18.4669 20.9227 17.6289C20.8444 17.4244 20.8171 17.2733 20.8171 17.167V2.75703C20.8171 2.38963 20.9223 2.08936 21.126 1.83324C21.3317 1.5745 21.6598 1.33417 22.1479 1.13152C22.2972 1.09226 22.4157 1.07703 22.5071 1.07703H22.8471C23.3834 1.07703 23.8882 1.36688 24.3505 2.15099C24.4545 2.34912 24.5171 2.60516 24.5171 2.93703V14.627V15.127H25.0171H36.6871C37.2935 15.127 37.7291 15.2726 38.0405 15.5175ZM50.9902 3.10585L51.0888 3.36326L51.133 3.3721C51.18 3.46156 51.2422 3.58154 51.3198 3.73276C51.5155 4.11431 51.8056 4.68707 52.1905 5.4518C52.96 6.98089 54.1064 9.27351 55.6296 12.33L55.9395 12.9518L56.4307 12.4606C56.4608 12.4304 56.4807 12.4024 56.4851 12.3962L56.4855 12.3957C56.4887 12.3913 56.4915 12.3871 56.494 12.3834C56.4975 12.3783 56.5003 12.3739 56.5022 12.3709C56.509 12.3602 56.5148 12.3503 56.5186 12.3438C56.5266 12.3299 56.5355 12.3138 56.5444 12.2976C56.5625 12.2643 56.5871 12.2181 56.6174 12.1602C56.6784 12.044 56.7667 11.8734 56.8818 11.6493C57.1123 11.2008 57.4527 10.5338 57.9028 9.64865C58.7987 7.88672 60.1303 5.25838 61.8975 1.76381C62.3252 1.26022 62.7248 1.07703 63.0971 1.07703H63.4771C64.009 1.07703 64.4916 1.35605 64.9182 2.10671C65.0132 2.28845 65.0471 2.43661 65.0471 2.55703V3.07465C65.0451 3.08226 65.0419 3.09342 65.037 3.10861C65.0204 3.16082 64.9925 3.23668 64.9502 3.33973C64.866 3.54487 64.7364 3.83065 64.5588 4.20069C64.2044 4.93929 63.6701 5.98976 62.9543 7.35482L62.9542 7.35478L62.9502 7.36291C61.1769 10.8994 59.8315 13.5728 58.9137 15.3835C58.4547 16.289 58.1031 16.9777 57.8586 17.4505C57.7363 17.6871 57.6415 17.868 57.5739 17.9944C57.5318 18.0732 57.5058 18.1198 57.4924 18.1438C57.4908 18.1467 57.4894 18.1493 57.4881 18.1516C57.0587 18.6035 56.6762 18.767 56.3371 18.767H55.9271C55.2517 18.767 54.616 18.3081 54.1042 16.9686L54.0947 16.9438L54.0827 16.9201C51.7795 12.397 50.0525 8.98814 48.9016 6.6929C48.326 5.54501 47.8952 4.67716 47.6086 4.08825C47.4651 3.79334 47.3591 3.57106 47.2894 3.41953C47.2621 3.36004 47.2416 3.3141 47.2271 3.28036V3.23425L47.1642 3.12411C47.1631 3.12085 47.1606 3.11282 47.1579 3.09877C47.1522 3.06958 47.1471 3.02367 47.1471 2.95703V2.67703C47.1471 2.30021 47.2579 2.00342 47.4689 1.75788C47.6852 1.50611 48.0343 1.27717 48.5604 1.09646C48.6146 1.08316 48.6666 1.07703 48.7171 1.07703H49.0871C49.7349 1.07703 50.4062 1.58088 50.9902 3.10585ZM84.5306 3.06679L84.5397 3.09052L84.5512 3.1132C86.7778 7.50306 88.4641 10.8382 89.6104 13.119C90.1836 14.2596 90.6213 15.1357 90.9239 15.7479C91.0752 16.0542 91.1922 16.2933 91.2752 16.466C91.3168 16.5524 91.3492 16.6209 91.3728 16.6722C91.3743 16.6753 91.3757 16.6784 91.3771 16.6815V17.287C91.3771 17.7857 91.0732 18.2759 90.1535 18.7116C89.9701 18.7525 89.8448 18.767 89.7671 18.767H89.4271C88.7919 18.767 88.1218 18.2589 87.535 16.7008L87.5255 16.6755L87.5133 16.6513C85.9799 13.6211 84.8237 11.343 84.045 9.81723C83.6557 9.05449 83.3603 8.4789 83.1591 8.09112C83.0586 7.8975 82.9808 7.74913 82.9262 7.64718C82.8992 7.59663 82.8764 7.5548 82.8588 7.52366C82.8545 7.51612 82.85 7.50818 82.8453 7.5002C82.8407 7.49227 82.8359 7.48431 82.8312 7.47666C82.8267 7.4694 82.8193 7.45755 82.81 7.44435C82.8054 7.43781 82.7977 7.42701 82.7875 7.41444C82.7807 7.40592 82.7576 7.3775 82.7225 7.3474L82.2349 6.92947L81.9493 7.50463C80.2361 10.9544 78.9275 13.5758 78.0232 15.3694C77.5709 16.2664 77.2204 16.9552 76.9712 17.4365C76.8465 17.6774 76.7481 17.8647 76.6754 17.9995C76.6389 18.067 76.61 18.1195 76.5879 18.1581C76.5825 18.1677 76.5778 18.1758 76.5738 18.1826C76.1381 18.6048 75.7411 18.767 75.3771 18.767H75.0471C74.5217 18.767 74.0199 18.4721 73.5633 17.6475C73.4993 17.4135 73.4771 17.2584 73.4771 17.167V16.8779C73.4771 16.8797 73.4776 16.8633 73.4865 16.8223C73.4957 16.7801 73.5112 16.7233 73.5353 16.6499C73.5836 16.5028 73.6596 16.3095 73.767 16.0666C73.9813 15.5815 74.3072 14.9282 74.7482 14.1026L74.7483 14.1027L74.7532 14.0929L81.006 1.74661C81.4258 1.26522 81.8409 1.07703 82.2571 1.07703H82.6571C83.2928 1.07703 83.9536 1.56931 84.5306 3.06679ZM81.981 8.00309L81.9806 8.00253L81.981 8.00309ZM6.61713 1.07703H12.4471C14.4736 1.07703 16.1971 1.76613 17.6446 3.15245C18.2699 3.95984 18.5171 4.58811 18.5171 5.05703V14.787C18.5171 15.5138 18.0514 16.3709 16.8856 17.3573C15.4783 18.3002 13.9624 18.767 12.3271 18.767H6.86713C4.87144 18.767 3.1912 18.1619 1.79805 16.9608C0.972574 16.131 0.617126 15.3449 0.617126 14.597V5.24703C0.617126 3.98752 1.45911 2.81099 3.47477 1.76259C4.65058 1.29861 5.69594 1.07703 6.61713 1.07703ZM42.7771 1.07703H43.1271C43.6962 1.07703 44.2185 1.37407 44.6893 2.14919C44.7878 2.34837 44.8471 2.60547 44.8471 2.93703V17.027C44.8471 17.4269 44.7318 17.7495 44.5101 18.0204C44.2878 18.2922 43.9346 18.5403 43.4114 18.7436C43.3096 18.7614 43.244 18.767 43.2071 18.767H42.6771C42.1065 18.767 41.5868 18.458 41.1317 17.6264C41.0541 17.4232 41.0271 17.2728 41.0271 17.167V2.75703C41.0271 2.39342 41.134 2.09511 41.3439 1.83885C41.5573 1.5783 41.8988 1.33568 42.4074 1.13139C42.547 1.09335 42.6697 1.07703 42.7771 1.07703ZM69.1071 1.07703H69.4571C70.0262 1.07703 70.5485 1.37407 71.0193 2.14919C71.1178 2.34836 71.1771 2.60547 71.1771 2.93703V17.027C71.1771 17.4269 71.0618 17.7495 70.8401 18.0204C70.6178 18.2922 70.2646 18.5402 69.7415 18.7436C69.6397 18.7614 69.574 18.767 69.5371 18.767H68.9971C68.4335 18.767 67.9156 18.4585 67.459 17.6214C67.3751 17.4168 67.3471 17.2684 67.3471 17.167V2.75703C67.3471 2.39342 67.454 2.09511 67.6639 1.83884C67.877 1.57866 68.2179 1.33634 68.7253 1.13222C68.8729 1.09341 68.9995 1.07703 69.1071 1.07703Z" fill="#0564BD" stroke="#0564BD"/>
<path d="M138.079 6.72792L138.079 6.72795L138.083 6.73699C138.472 7.81404 138.653 8.69657 138.653 9.39703V10.407C138.653 12.3492 137.814 14.274 136.053 16.1892C134.725 17.3584 133.469 18.0911 132.284 18.4239C131.356 18.6588 130.648 18.767 130.143 18.767H122.343C121.807 18.767 121.302 18.4673 120.851 17.6328C120.779 17.4302 120.753 17.2774 120.753 17.167V2.75703C120.753 2.38963 120.858 2.08936 121.062 1.83324C121.267 1.5745 121.595 1.33417 122.084 1.13152C122.233 1.09226 122.351 1.07703 122.443 1.07703H129.963C132.013 1.07703 133.988 1.88185 135.898 3.54959C137.058 4.75174 137.768 5.81098 138.079 6.72792ZM124.943 4.71703H124.443V5.21703V14.627V15.127H124.943H129.103C130.86 15.127 132.401 14.4531 133.707 13.1396L133.723 13.1242L133.737 13.1074C134.533 12.1536 134.963 11.1374 134.963 10.067V9.73703C134.963 8.13076 134.059 6.7781 132.434 5.6735L132.422 5.66555L132.41 5.65828C131.358 5.02708 130.164 4.71703 128.843 4.71703H124.943ZM152.006 3.06679L152.015 3.09066L152.027 3.11347C154.257 7.5033 155.945 10.8384 157.091 13.119C157.664 14.2595 158.101 15.1355 158.403 15.7474C158.554 16.0536 158.67 16.2924 158.752 16.4647C158.794 16.5509 158.825 16.619 158.849 16.6697C158.85 16.6729 158.851 16.676 158.853 16.679V17.287C158.853 17.7857 158.549 18.2759 157.629 18.7116C157.446 18.7525 157.321 18.767 157.243 18.767H156.903C156.268 18.767 155.597 18.2589 155.011 16.7008L155.001 16.6755L154.989 16.6513C153.456 13.6212 152.3 11.3432 151.523 9.81762C151.135 9.05494 150.841 8.47965 150.641 8.09225C150.541 7.89876 150.464 7.75095 150.411 7.64971C150.384 7.59942 150.363 7.55857 150.346 7.52866C150.338 7.51412 150.33 7.49901 150.322 7.48554C150.318 7.47915 150.312 7.46921 150.305 7.45828C150.301 7.4529 150.295 7.44392 150.288 7.43337L150.287 7.43315C150.283 7.42639 150.264 7.40122 150.236 7.37347L149.745 6.88194L149.435 7.50429C147.719 10.954 146.407 13.5755 145.502 15.3691C145.048 16.2661 144.697 16.9549 144.448 17.4362C144.323 17.6771 144.224 17.8644 144.151 17.9992C144.115 18.0667 144.086 18.1193 144.064 18.1579C144.058 18.1676 144.054 18.1757 144.05 18.1825C143.614 18.6048 143.217 18.767 142.853 18.767H142.533C141.999 18.767 141.495 18.4703 141.039 17.6475C140.975 17.4135 140.953 17.2585 140.953 17.167V16.8779C140.953 16.878 140.953 16.8781 140.953 16.8781C140.953 16.8781 140.954 16.8613 140.962 16.8223C140.971 16.7801 140.987 16.7233 141.011 16.6499C141.059 16.5028 141.135 16.3095 141.243 16.0666C141.457 15.5815 141.783 14.9282 142.224 14.1026L142.224 14.1027L142.229 14.0929L148.482 1.74661C148.901 1.26522 149.317 1.07703 149.733 1.07703H150.143C150.771 1.07703 151.429 1.56731 152.006 3.06679ZM165.006 3.10585L165.104 3.36326L165.148 3.37205C165.195 3.46147 165.257 3.58134 165.335 3.73238C165.53 4.11392 165.819 4.68668 166.203 5.45141C166.971 6.9805 168.115 9.27312 169.635 12.3297L169.945 12.9522L170.436 12.4606C170.466 12.4305 170.486 12.4026 170.491 12.3964L170.491 12.3958C170.493 12.3929 170.495 12.3902 170.497 12.3876C170.502 12.3806 170.505 12.3749 170.508 12.3711C170.515 12.3604 170.52 12.3506 170.524 12.344C170.532 12.3302 170.541 12.3141 170.55 12.2979C170.568 12.2646 170.593 12.2184 170.623 12.1606C170.684 12.0443 170.773 11.8737 170.888 11.6497C171.119 11.2012 171.46 10.5341 171.911 9.64898C172.809 7.88677 174.143 5.25786 175.914 1.76245C176.335 1.25964 176.731 1.07703 177.103 1.07703H177.483C178.015 1.07703 178.497 1.35604 178.924 2.10663C179.019 2.2884 179.053 2.43659 179.053 2.55703V3.07464C179.051 3.08225 179.048 3.09341 179.043 3.10861C179.026 3.16082 178.998 3.23668 178.956 3.33973C178.872 3.54487 178.742 3.83065 178.565 4.20069C178.21 4.93929 177.676 5.98976 176.96 7.35482L176.96 7.35478L176.956 7.36325C175.186 10.8997 173.842 13.573 172.924 15.3835C172.465 16.2889 172.114 16.9774 171.868 17.4499C171.746 17.6863 171.651 17.8669 171.583 17.9928C171.549 18.056 171.523 18.1031 171.504 18.1356C171.501 18.1414 171.498 18.1463 171.495 18.1505C171.073 18.6019 170.69 18.767 170.343 18.767H169.943C169.259 18.767 168.621 18.3061 168.11 16.9686L168.1 16.9438L168.088 16.9201C165.785 12.397 164.058 8.98814 162.907 6.6929C162.332 5.54501 161.901 4.67716 161.614 4.08825C161.471 3.79334 161.365 3.57106 161.295 3.41953C161.268 3.36004 161.247 3.3141 161.233 3.28036V3.24899L161.181 3.14638C161.181 3.14385 161.177 3.13284 161.173 3.11038C161.167 3.07663 161.163 3.02666 161.163 2.95703V2.67703C161.163 2.30021 161.274 2.00342 161.485 1.75788C161.701 1.50547 162.052 1.276 162.58 1.09508C162.623 1.08394 162.673 1.07703 162.733 1.07703H163.093C163.749 1.07703 164.423 1.58286 165.006 3.10585ZM204.684 1.36749C204.937 1.5532 205.168 1.84505 205.362 2.27635C205.378 2.36427 205.383 2.42264 205.383 2.45703V3.15703C205.383 3.6209 205.107 4.10318 204.298 4.57757C203.977 4.67962 203.758 4.71703 203.623 4.71703H191.703H191.203V5.21703V7.56703V8.06703H191.703H198.793C201.552 8.06703 203.525 8.92668 204.814 10.5757C205.227 11.2249 205.383 11.6968 205.383 12.017V14.807C205.383 15.6472 204.82 16.5827 203.418 17.5989C202.093 18.3879 200.816 18.767 199.583 18.767H189.033C188.551 18.767 188.074 18.5104 187.609 17.8105C187.515 17.6094 187.483 17.4575 187.483 17.347V16.847C187.483 16.4754 187.588 16.1737 187.792 15.9182C187.998 15.6586 188.328 15.4186 188.821 15.2184C189.013 15.1599 189.242 15.127 189.513 15.127H201.203H201.703V14.627V12.277V11.777H201.203H193.713C191.746 11.777 190.075 11.1698 188.673 9.96023C187.84 9.12973 187.483 8.34381 187.483 7.59703V5.24703C187.483 3.99524 188.327 2.81838 190.351 1.76248C191.527 1.29841 192.569 1.07703 193.483 1.07703H203.733C204.118 1.07703 204.427 1.17853 204.684 1.36749ZM183.113 1.07703H183.473C184.034 1.07703 184.553 1.37239 185.025 2.14918C185.124 2.34836 185.183 2.60547 185.183 2.93703V17.027C185.183 17.4269 185.067 17.7495 184.846 18.0204C184.623 18.2922 184.27 18.5403 183.747 18.7436C183.645 18.7614 183.58 18.767 183.543 18.767H183.013C182.442 18.767 181.922 18.458 181.467 17.6264C181.39 17.4232 181.363 17.2728 181.363 17.167V2.75703C181.363 2.39342 181.47 2.09511 181.68 1.83885C181.893 1.57864 182.234 1.33631 182.741 1.13219C182.89 1.09293 183.013 1.07703 183.113 1.07703Z" fill="#0564BD" stroke="#0564BD"/>
<mask id="path-3-inside-1_4_8" fill="white">
<path d="M60.69 30.7165H5.11713V31.7165H60.69V30.7165Z"/>
</mask>
<path d="M60.69 30.7165H5.11713V31.7165H60.69V30.7165Z" fill="#0564BD"/>
<path d="M5.11713 30.7165V29.7165H4.11713V30.7165H5.11713ZM60.69 30.7165H61.69V29.7165H60.69V30.7165ZM60.69 31.7165V32.7165H61.69V31.7165H60.69ZM5.11713 31.7165H4.11713V32.7165H5.11713V31.7165ZM5.11713 31.7165H60.69V29.7165H5.11713V31.7165ZM59.69 30.7165V31.7165H61.69V30.7165H59.69ZM60.69 30.7165H5.11713V32.7165H60.69V30.7165ZM6.11713 31.7165V30.7165H4.11713V31.7165H6.11713Z" fill="#0564BD" mask="url(#path-3-inside-1_4_8)"/>
<mask id="path-5-inside-2_4_8" fill="white">
<path d="M200.883 30.7165H145.31V31.7165H200.883V30.7165Z"/>
</mask>
<path d="M200.883 30.7165H145.31V31.7165H200.883V30.7165Z" fill="#0564BD"/>
<path d="M145.31 30.7165V29.7165H144.31V30.7165H145.31ZM200.883 30.7165H201.883V29.7165H200.883V30.7165ZM200.883 31.7165V32.7165H201.883V31.7165H200.883ZM145.31 31.7165H144.31V32.7165H145.31V31.7165ZM145.31 31.7165H200.883V29.7165H145.31V31.7165ZM199.883 30.7165V31.7165H201.883V30.7165H199.883ZM200.883 30.7165H145.31V32.7165H200.883V30.7165ZM146.31 31.7165V30.7165H144.31V31.7165H146.31Z" fill="#0564BD" mask="url(#path-5-inside-2_4_8)"/>
<mask id="path-7-inside-3_4_8" fill="white">
<path d="M63.69 27.2825V35.1525H64.69V31.6225H67.69V30.7825H64.69V28.1225H68.23V27.2825H63.69ZM69.58 27.2825V31.9025C69.58 32.5325 69.65 33.0625 69.8 33.4925C69.94 33.9325 70.14 34.2825 70.39 34.5425C70.64 34.8125 70.94 35.0025 71.29 35.1225C71.64 35.2425 72.01 35.2925 72.41 35.2925C72.81 35.2925 73.19 35.2425 73.53 35.1225C73.87 35.0025 74.17 34.8125 74.42 34.5425C74.68 34.2825 74.87 33.9325 75.02 33.4925C75.16 33.0625 75.23 32.5325 75.23 31.9025V27.2825H74.27V31.9225C74.27 32.3925 74.23 32.7925 74.13 33.1125C74.03 33.4325 73.9 33.6925 73.73 33.8825C73.57 34.0725 73.37 34.2125 73.15 34.2925C72.92 34.3825 72.68 34.4225 72.41 34.4225C72.16 34.4225 71.92 34.3825 71.69 34.2925C71.47 34.2125 71.28 34.0725 71.11 33.8825C70.95 33.6925 70.82 33.4325 70.72 33.1125C70.63 32.7925 70.58 32.3925 70.58 31.9225V27.2825H69.58ZM77.36 27.2825V35.1525H81.8V34.3025H78.35V27.2825H77.36ZM83.19 27.2825V35.1525H87.63V34.3025H84.19V27.2825H83.19ZM88.78 33.4325L88.18 34.1325C88.53 34.4925 88.93 34.7725 89.41 34.9825C89.88 35.1925 90.39 35.2925 90.94 35.2925C91.36 35.2925 91.73 35.2425 92.06 35.1225C92.39 35.0025 92.67 34.8425 92.9 34.6425C93.13 34.4425 93.31 34.2025 93.43 33.9325C93.56 33.6525 93.62 33.3625 93.62 33.0525C93.62 32.7625 93.58 32.5125 93.49 32.2925C93.41 32.0725 93.29 31.8825 93.15 31.7125C93.01 31.5525 92.83 31.4025 92.63 31.2825C92.43 31.1625 92.22 31.0525 92 30.9525L90.88 30.4725C90.72 30.4125 90.57 30.3425 90.41 30.2625C90.26 30.1825 90.12 30.1025 89.99 30.0025C89.87 29.9025 89.76 29.7825 89.69 29.6525C89.61 29.5225 89.57 29.3525 89.57 29.1625C89.57 28.8025 89.71 28.5225 89.98 28.3225C90.24 28.1125 90.6 28.0125 91.04 28.0125C91.41 28.0125 91.74 28.0825 92.03 28.2125C92.32 28.3425 92.59 28.5225 92.83 28.7525L93.37 28.1125C93.09 27.8225 92.75 27.5825 92.35 27.4025C91.95 27.2225 91.51 27.1325 91.04 27.1325C90.68 27.1325 90.35 27.1925 90.05 27.2925C89.75 27.3925 89.49 27.5425 89.27 27.7325C89.05 27.9225 88.88 28.1425 88.75 28.3925C88.63 28.6525 88.57 28.9325 88.57 29.2225C88.57 29.5125 88.61 29.7625 88.71 29.9825C88.81 30.2025 88.93 30.3925 89.08 30.5525C89.23 30.7125 89.41 30.8525 89.6 30.9625C89.79 31.0725 89.98 31.1725 90.16 31.2525L91.29 31.7425C91.47 31.8325 91.65 31.9125 91.81 31.9925C91.97 32.0725 92.1 32.1625 92.22 32.2625C92.34 32.3625 92.43 32.4825 92.5 32.6225C92.56 32.7625 92.6 32.9325 92.6 33.1325C92.6 33.5225 92.45 33.8325 92.17 34.0625C91.88 34.3025 91.47 34.4225 90.95 34.4225C90.55 34.4225 90.15 34.3325 89.77 34.1525C89.39 33.9725 89.06 33.7325 88.78 33.4325ZM96.56 28.1225V35.1525H97.57V28.1225H99.94V27.2825H94.18V28.1225H96.56ZM104.23 31.9525H101.86L102.23 30.7525C102.38 30.3125 102.51 29.8725 102.64 29.4325C102.77 29.0025 102.89 28.5525 103.01 28.0925H103.06C103.19 28.5525 103.32 29.0025 103.45 29.4325C103.57 29.8725 103.71 30.3125 103.85 30.7525L104.23 31.9525ZM104.48 32.7525L105.22 35.1525H106.29L103.63 27.2825H102.5L99.83 35.1525H100.85L101.61 32.7525H104.48ZM106.83 31.2125C106.83 31.8525 106.92 32.4325 107.09 32.9425C107.26 33.4425 107.5 33.8725 107.81 34.2225C108.12 34.5725 108.48 34.8325 108.9 35.0225C109.32 35.2025 109.78 35.2925 110.27 35.2925C110.78 35.2925 111.23 35.1925 111.62 34.9925C112.01 34.7925 112.36 34.5125 112.67 34.1525L112.11 33.5425C111.85 33.8225 111.58 34.0425 111.3 34.1925C111.02 34.3425 110.68 34.4225 110.3 34.4225C109.92 34.4225 109.58 34.3425 109.28 34.1925C108.98 34.0425 108.73 33.8225 108.52 33.5425C108.31 33.2625 108.15 32.9225 108.04 32.5325C107.92 32.1325 107.86 31.6925 107.86 31.1925C107.86 30.7025 107.92 30.2625 108.04 29.8725C108.16 29.4825 108.33 29.1425 108.55 28.8725C108.76 28.5925 109.02 28.3825 109.33 28.2325C109.63 28.0825 109.97 28.0125 110.35 28.0125C110.68 28.0125 110.98 28.0825 111.23 28.2125C111.48 28.3425 111.71 28.5225 111.92 28.7425L112.48 28.1125C112.25 27.8525 111.95 27.6225 111.59 27.4325C111.23 27.2325 110.81 27.1325 110.33 27.1325C109.83 27.1325 109.36 27.2325 108.94 27.4225C108.51 27.6025 108.14 27.8725 107.83 28.2325C107.51 28.5825 107.27 29.0125 107.09 29.5125C106.92 30.0125 106.83 30.5825 106.83 31.2125ZM114.14 27.2825V35.1525H115.13V32.6525L116.49 31.0625L118.84 35.1525H119.96L117.11 30.2825L119.57 27.2825H118.45L115.17 31.2325H115.13V27.2825H114.14ZM123.51 27.2825V35.1525H125.53C126.12 35.1525 126.64 35.0625 127.1 34.8825C127.55 34.7025 127.94 34.4425 128.25 34.1025C128.56 33.7625 128.8 33.3425 128.96 32.8525C129.12 32.3625 129.2 31.8025 129.2 31.1825C129.2 29.9225 128.88 28.9625 128.25 28.2925C127.62 27.6125 126.69 27.2825 125.48 27.2825H123.51ZM125.41 34.3325H124.51V28.0925H125.41C126.33 28.0925 127.02 28.3625 127.48 28.8925C127.94 29.4125 128.17 30.1825 128.17 31.1825C128.17 32.1825 127.94 32.9525 127.48 33.5125C127.02 34.0625 126.33 34.3325 125.41 34.3325ZM130.89 27.2825V35.1525H135.55V34.3025H131.89V31.4425H134.87V30.5925H131.89V28.1225H135.43V27.2825H130.89ZM136.13 27.2825L138.65 35.1525H139.82L142.31 27.2825H141.29L140.03 31.5325C139.9 32.0025 139.77 32.4325 139.66 32.8325C139.55 33.2325 139.42 33.6725 139.28 34.1325H139.23C139.08 33.6725 138.95 33.2325 138.84 32.8325C138.73 32.4325 138.61 32.0025 138.46 31.5325L137.2 27.2825H136.13Z"/>
</mask>
<path d="M63.69 27.2825V35.1525H64.69V31.6225H67.69V30.7825H64.69V28.1225H68.23V27.2825H63.69ZM69.58 27.2825V31.9025C69.58 32.5325 69.65 33.0625 69.8 33.4925C69.94 33.9325 70.14 34.2825 70.39 34.5425C70.64 34.8125 70.94 35.0025 71.29 35.1225C71.64 35.2425 72.01 35.2925 72.41 35.2925C72.81 35.2925 73.19 35.2425 73.53 35.1225C73.87 35.0025 74.17 34.8125 74.42 34.5425C74.68 34.2825 74.87 33.9325 75.02 33.4925C75.16 33.0625 75.23 32.5325 75.23 31.9025V27.2825H74.27V31.9225C74.27 32.3925 74.23 32.7925 74.13 33.1125C74.03 33.4325 73.9 33.6925 73.73 33.8825C73.57 34.0725 73.37 34.2125 73.15 34.2925C72.92 34.3825 72.68 34.4225 72.41 34.4225C72.16 34.4225 71.92 34.3825 71.69 34.2925C71.47 34.2125 71.28 34.0725 71.11 33.8825C70.95 33.6925 70.82 33.4325 70.72 33.1125C70.63 32.7925 70.58 32.3925 70.58 31.9225V27.2825H69.58ZM77.36 27.2825V35.1525H81.8V34.3025H78.35V27.2825H77.36ZM83.19 27.2825V35.1525H87.63V34.3025H84.19V27.2825H83.19ZM88.78 33.4325L88.18 34.1325C88.53 34.4925 88.93 34.7725 89.41 34.9825C89.88 35.1925 90.39 35.2925 90.94 35.2925C91.36 35.2925 91.73 35.2425 92.06 35.1225C92.39 35.0025 92.67 34.8425 92.9 34.6425C93.13 34.4425 93.31 34.2025 93.43 33.9325C93.56 33.6525 93.62 33.3625 93.62 33.0525C93.62 32.7625 93.58 32.5125 93.49 32.2925C93.41 32.0725 93.29 31.8825 93.15 31.7125C93.01 31.5525 92.83 31.4025 92.63 31.2825C92.43 31.1625 92.22 31.0525 92 30.9525L90.88 30.4725C90.72 30.4125 90.57 30.3425 90.41 30.2625C90.26 30.1825 90.12 30.1025 89.99 30.0025C89.87 29.9025 89.76 29.7825 89.69 29.6525C89.61 29.5225 89.57 29.3525 89.57 29.1625C89.57 28.8025 89.71 28.5225 89.98 28.3225C90.24 28.1125 90.6 28.0125 91.04 28.0125C91.41 28.0125 91.74 28.0825 92.03 28.2125C92.32 28.3425 92.59 28.5225 92.83 28.7525L93.37 28.1125C93.09 27.8225 92.75 27.5825 92.35 27.4025C91.95 27.2225 91.51 27.1325 91.04 27.1325C90.68 27.1325 90.35 27.1925 90.05 27.2925C89.75 27.3925 89.49 27.5425 89.27 27.7325C89.05 27.9225 88.88 28.1425 88.75 28.3925C88.63 28.6525 88.57 28.9325 88.57 29.2225C88.57 29.5125 88.61 29.7625 88.71 29.9825C88.81 30.2025 88.93 30.3925 89.08 30.5525C89.23 30.7125 89.41 30.8525 89.6 30.9625C89.79 31.0725 89.98 31.1725 90.16 31.2525L91.29 31.7425C91.47 31.8325 91.65 31.9125 91.81 31.9925C91.97 32.0725 92.1 32.1625 92.22 32.2625C92.34 32.3625 92.43 32.4825 92.5 32.6225C92.56 32.7625 92.6 32.9325 92.6 33.1325C92.6 33.5225 92.45 33.8325 92.17 34.0625C91.88 34.3025 91.47 34.4225 90.95 34.4225C90.55 34.4225 90.15 34.3325 89.77 34.1525C89.39 33.9725 89.06 33.7325 88.78 33.4325ZM96.56 28.1225V35.1525H97.57V28.1225H99.94V27.2825H94.18V28.1225H96.56ZM104.23 31.9525H101.86L102.23 30.7525C102.38 30.3125 102.51 29.8725 102.64 29.4325C102.77 29.0025 102.89 28.5525 103.01 28.0925H103.06C103.19 28.5525 103.32 29.0025 103.45 29.4325C103.57 29.8725 103.71 30.3125 103.85 30.7525L104.23 31.9525ZM104.48 32.7525L105.22 35.1525H106.29L103.63 27.2825H102.5L99.83 35.1525H100.85L101.61 32.7525H104.48ZM106.83 31.2125C106.83 31.8525 106.92 32.4325 107.09 32.9425C107.26 33.4425 107.5 33.8725 107.81 34.2225C108.12 34.5725 108.48 34.8325 108.9 35.0225C109.32 35.2025 109.78 35.2925 110.27 35.2925C110.78 35.2925 111.23 35.1925 111.62 34.9925C112.01 34.7925 112.36 34.5125 112.67 34.1525L112.11 33.5425C111.85 33.8225 111.58 34.0425 111.3 34.1925C111.02 34.3425 110.68 34.4225 110.3 34.4225C109.92 34.4225 109.58 34.3425 109.28 34.1925C108.98 34.0425 108.73 33.8225 108.52 33.5425C108.31 33.2625 108.15 32.9225 108.04 32.5325C107.92 32.1325 107.86 31.6925 107.86 31.1925C107.86 30.7025 107.92 30.2625 108.04 29.8725C108.16 29.4825 108.33 29.1425 108.55 28.8725C108.76 28.5925 109.02 28.3825 109.33 28.2325C109.63 28.0825 109.97 28.0125 110.35 28.0125C110.68 28.0125 110.98 28.0825 111.23 28.2125C111.48 28.3425 111.71 28.5225 111.92 28.7425L112.48 28.1125C112.25 27.8525 111.95 27.6225 111.59 27.4325C111.23 27.2325 110.81 27.1325 110.33 27.1325C109.83 27.1325 109.36 27.2325 108.94 27.4225C108.51 27.6025 108.14 27.8725 107.83 28.2325C107.51 28.5825 107.27 29.0125 107.09 29.5125C106.92 30.0125 106.83 30.5825 106.83 31.2125ZM114.14 27.2825V35.1525H115.13V32.6525L116.49 31.0625L118.84 35.1525H119.96L117.11 30.2825L119.57 27.2825H118.45L115.17 31.2325H115.13V27.2825H114.14ZM123.51 27.2825V35.1525H125.53C126.12 35.1525 126.64 35.0625 127.1 34.8825C127.55 34.7025 127.94 34.4425 128.25 34.1025C128.56 33.7625 128.8 33.3425 128.96 32.8525C129.12 32.3625 129.2 31.8025 129.2 31.1825C129.2 29.9225 128.88 28.9625 128.25 28.2925C127.62 27.6125 126.69 27.2825 125.48 27.2825H123.51ZM125.41 34.3325H124.51V28.0925H125.41C126.33 28.0925 127.02 28.3625 127.48 28.8925C127.94 29.4125 128.17 30.1825 128.17 31.1825C128.17 32.1825 127.94 32.9525 127.48 33.5125C127.02 34.0625 126.33 34.3325 125.41 34.3325ZM130.89 27.2825V35.1525H135.55V34.3025H131.89V31.4425H134.87V30.5925H131.89V28.1225H135.43V27.2825H130.89ZM136.13 27.2825L138.65 35.1525H139.82L142.31 27.2825H141.29L140.03 31.5325C139.9 32.0025 139.77 32.4325 139.66 32.8325C139.55 33.2325 139.42 33.6725 139.28 34.1325H139.23C139.08 33.6725 138.95 33.2325 138.84 32.8325C138.73 32.4325 138.61 32.0025 138.46 31.5325L137.2 27.2825H136.13Z" fill="#0564BD" stroke="#0564BD" stroke-width="2" mask="url(#path-7-inside-3_4_8)"/>
</svg>
