<svg viewBox="0 0 137 23" xmlns="http://www.w3.org/2000/svg"><path d="M1.72461 8.35742C1.79492 8.48633 1.86523 8.60938 1.93555 8.72656C2.00586 8.84375 2.06445 8.94922 2.11133 9.04297C2.31055 9.39453 2.50977 9.74023 2.70898 10.0801C2.87305 10.373 3.04883 10.6777 3.23633 10.9941C3.42383 11.2988 3.58789 11.5625 3.72852 11.7852C3.66992 11.832 3.59375 11.8672 3.5 11.8906C3.40625 11.9023 3.3125 11.9141 3.21875 11.9258C3.10156 11.9375 2.97852 11.9434 2.84961 11.9434C2.55664 11.9434 2.36328 11.9258 2.26953 11.8906C2.17578 11.8555 2.09961 11.7852 2.04102 11.6797C2.0293 11.6562 1.95898 11.5391 1.83008 11.3281C1.70117 11.1172 1.54883 10.8594 1.37305 10.5547C1.19727 10.25 1.00391 9.91602 0.792969 9.55273C0.59375 9.17773 0.40625 8.82031 0.230469 8.48047C0.207031 8.42188 0.177734 8.35742 0.142578 8.28711C0.0957031 8.2168 0.0722656 8.1582 0.0722656 8.11133C0.0722656 8.09961 0.0839844 8.07617 0.107422 8.04102C0.142578 7.99414 0.224609 7.91211 0.353516 7.79492L3.42969 5.19336C3.51172 5.12305 3.59375 5.06445 3.67578 5.01758C3.75781 4.9707 3.85156 4.92969 3.95703 4.89453C4.0625 4.84766 4.18555 4.8125 4.32617 4.78906C4.47852 4.75391 4.66602 4.72461 4.88867 4.70117C5.07617 4.67773 5.22266 4.67188 5.32812 4.68359C5.43359 4.68359 5.50977 4.69531 5.55664 4.71875C5.61523 4.73047 5.64453 4.74805 5.64453 4.77148C5.65625 4.79492 5.65625 4.8125 5.64453 4.82422C5.58594 4.88281 5.42188 5.0293 5.15234 5.26367C4.89453 5.48633 4.57812 5.76172 4.20312 6.08984C3.83984 6.41797 3.43555 6.78125 2.99023 7.17969C2.55664 7.57812 2.13477 7.9707 1.72461 8.35742ZM18.791 0.763672C19.2012 0.763672 19.5352 0.880859 19.793 1.11523C20.0625 1.33789 20.1797 1.74805 20.1445 2.3457C20.1328 2.54492 20.0859 2.91992 20.0039 3.4707C19.9219 4.00977 19.8223 4.64844 19.7051 5.38672C19.5879 6.125 19.4531 6.92188 19.3008 7.77734C19.1602 8.62109 19.0254 9.44727 18.8965 10.2559H19.2656C19.3828 10.2559 19.5117 10.25 19.6523 10.2383C19.793 10.2266 19.9395 10.209 20.0918 10.1855C20.0332 10.3262 19.9688 10.4609 19.8984 10.5898C19.8281 10.707 19.7578 10.8125 19.6875 10.9062C19.6055 11.0117 19.5234 11.1055 19.4414 11.1875C19.3359 11.3164 19.2129 11.4336 19.0723 11.5391C18.9316 11.6328 18.7969 11.709 18.668 11.7676C18.5859 12.3418 18.5156 12.8574 18.457 13.3145C18.4102 13.7598 18.3809 14.1289 18.3691 14.4219C18.3457 14.8672 18.3574 15.2832 18.4043 15.6699C18.4395 16.0098 18.5098 16.3555 18.6152 16.707C18.7207 17.0586 18.8906 17.3398 19.125 17.5508L17.0859 18.2188C16.9453 18.0195 16.8398 17.75 16.7695 17.4102C16.7109 17.082 16.6699 16.7539 16.6465 16.4258C16.6113 16.0391 16.6055 15.6406 16.6289 15.2305C16.6523 14.8203 16.7168 14.2871 16.8223 13.6309C16.9277 12.9629 17.0449 12.2363 17.1738 11.4512C16.9395 11.3809 16.6816 11.3223 16.4004 11.2754C16.1309 11.2285 15.8262 11.2051 15.4863 11.2051C15.1816 11.2051 14.8594 11.2168 14.5195 11.2402C14.1914 11.2637 13.8633 11.293 13.5352 11.3281C13.3945 11.8438 13.2539 12.3887 13.1133 12.9629C12.9609 13.584 12.8203 14.1113 12.6914 14.5449C12.5742 14.9902 12.457 15.3594 12.3398 15.6523C12.2344 15.9453 12.123 16.1797 12.0059 16.3555C11.9004 16.5312 11.7832 16.6602 11.6543 16.7422C11.5137 16.8125 11.3379 16.877 11.127 16.9355C10.9277 16.9941 10.6758 17.0527 10.3711 17.1113C10.0664 17.1699 9.67383 17.2168 9.19336 17.252C9.36914 17.041 9.52148 16.8477 9.65039 16.6719C9.7793 16.4961 9.9082 16.2793 10.0371 16.0215C10.166 15.7637 10.3125 15.4297 10.4766 15.0195C10.6289 14.6211 10.8281 14.0938 11.0742 13.4375C11.1797 13.168 11.2852 12.875 11.3906 12.5586C11.5078 12.2305 11.6309 11.8965 11.7598 11.5566C11.3379 11.6152 10.9805 11.668 10.6875 11.7148C10.3945 11.7617 10.2188 11.7969 10.1602 11.8203C10.0664 11.832 9.99023 11.832 9.93164 11.8203C9.7793 11.7969 9.69727 11.7207 9.68555 11.5918C9.69727 11.4277 9.75586 11.3164 9.86133 11.2578C9.95508 11.1992 10.1016 11.1289 10.3008 11.0469C10.3945 11 10.6113 10.918 10.9512 10.8008C11.2793 10.6719 11.6836 10.5371 12.1641 10.3965C12.3398 9.9043 12.5098 9.41797 12.6738 8.9375C12.8496 8.44531 13.0195 7.97656 13.1836 7.53125C13.3477 7.08594 13.5059 6.66992 13.6582 6.2832C13.8105 5.88477 13.9512 5.54492 14.0801 5.26367C14.2793 4.83008 14.5312 4.35547 14.8359 3.83984C15.1523 3.3125 15.5098 2.82031 15.9082 2.36328C16.3184 1.90625 16.7637 1.52539 17.2441 1.2207C17.7363 0.916016 18.252 0.763672 18.791 0.763672ZM18.5977 4.41992C18.7266 3.89258 18.8145 3.45898 18.8613 3.11914C18.9082 2.7793 18.9258 2.51562 18.9141 2.32812C18.9023 2.12891 18.8613 1.99414 18.791 1.92383C18.7324 1.8418 18.6562 1.80078 18.5625 1.80078C18.4102 1.80078 18.2227 1.85938 18 1.97656C17.7773 2.09375 17.543 2.26367 17.2969 2.48633C17.0508 2.69727 16.8047 2.9668 16.5586 3.29492C16.3242 3.61133 16.1133 3.97461 15.9258 4.38477C15.6562 4.99414 15.3516 5.74414 15.0117 6.63477C14.6719 7.51367 14.3027 8.63867 13.9043 10.0098C14.1387 9.97461 14.3672 9.94531 14.5898 9.92188C14.8242 9.89844 15.0527 9.88672 15.2754 9.88672C15.6738 9.88672 16.0547 9.9043 16.418 9.93945C16.7812 9.96289 17.1152 9.99219 17.4199 10.0273C17.5254 9.46484 17.6309 8.91406 17.7363 8.375C17.8535 7.82422 17.9648 7.30273 18.0703 6.81055C18.1758 6.31836 18.2695 5.86719 18.3516 5.45703C18.4453 5.04688 18.5273 4.70117 18.5977 4.41992ZM30.6992 10.1328C30.7812 10.0391 30.8633 9.99219 30.9453 9.99219C31.0391 9.98047 31.1094 10.0039 31.1562 10.0625C31.2148 10.1094 31.2383 10.1855 31.2266 10.291C31.2266 10.3965 31.1797 10.5137 31.0859 10.6426C30.8633 10.9473 30.6055 11.2637 30.3125 11.5918C30.0195 11.9082 29.7031 12.2188 29.3633 12.5234C29.0352 12.8281 28.7012 13.1152 28.3613 13.3848C28.0215 13.6543 27.6934 13.877 27.377 14.0527C27.0254 14.252 26.7266 14.3516 26.4805 14.3516C26.2461 14.3516 26.0117 14.1992 25.7773 13.8945C25.5664 13.625 25.4609 13.3379 25.4609 13.0332C25.4727 12.7168 25.543 12.3242 25.6719 11.8555C25.7539 11.5625 25.8652 11.2168 26.0059 10.8184C26.1582 10.4082 26.2754 10.0156 26.3574 9.64062C26.4512 9.26562 26.4805 8.94922 26.4453 8.69141C26.4102 8.42188 26.2578 8.28711 25.9883 8.28711C25.8008 8.28711 25.5957 8.35156 25.373 8.48047C25.1621 8.60938 24.9453 8.7793 24.7227 8.99023C24.5117 9.18945 24.3066 9.41797 24.1074 9.67578C23.9082 9.93359 23.7324 10.1855 23.5801 10.4316C23.4863 10.8887 23.3926 11.3398 23.2988 11.7852C23.2168 12.1602 23.1289 12.5703 23.0352 13.0156C22.9531 13.4492 22.8711 13.8359 22.7891 14.1758C22.7188 14.2344 22.6426 14.2754 22.5605 14.2988C22.4785 14.3223 22.4023 14.334 22.332 14.334C22.25 14.334 22.168 14.3281 22.0859 14.3164C21.9922 14.293 21.9043 14.2578 21.8223 14.2109C21.752 14.1641 21.6816 14.0996 21.6113 14.0176C21.541 13.9473 21.4883 13.8477 21.4531 13.7188C21.9805 11.5508 22.3965 9.81055 22.7012 8.49805C23.0059 7.18555 23.2402 6.18359 23.4043 5.49219C23.5918 4.67188 23.7207 4.10352 23.791 3.78711C23.8262 3.56445 23.8555 3.34766 23.8789 3.13672C23.9023 2.94922 23.9141 2.75586 23.9141 2.55664C23.9141 2.35742 23.8965 2.17578 23.8613 2.01172C23.9551 1.95312 24.0547 1.90625 24.1602 1.87109C24.2773 1.83594 24.3887 1.80664 24.4941 1.7832C24.623 1.74805 24.752 1.71875 24.8809 1.69531C25.0098 1.67187 25.127 1.66016 25.2324 1.66016C25.3262 1.66016 25.4141 1.67187 25.4961 1.69531C25.5781 1.70703 25.6309 1.74219 25.6543 1.80078C25.7246 1.85938 25.7539 1.97656 25.7422 2.15234C25.7422 2.32812 25.7305 2.50977 25.707 2.69727C25.6602 2.91992 25.6074 3.16016 25.5488 3.41797C25.3027 4.36719 25.0273 5.29297 24.7227 6.19531C24.418 7.08594 24.1367 8.04102 23.8789 9.06055C24.0312 8.82617 24.2129 8.58594 24.4238 8.33984C24.6348 8.09375 24.8633 7.87109 25.1094 7.67188C25.3672 7.46094 25.6367 7.29102 25.918 7.16211C26.1992 7.02148 26.498 6.95117 26.8145 6.95117C26.9785 6.95117 27.1309 6.98047 27.2715 7.03906C27.4238 7.08594 27.5527 7.17383 27.6582 7.30273C27.7754 7.41992 27.8633 7.58398 27.9219 7.79492C27.9805 7.99414 28.0039 8.24609 27.9922 8.55078C27.9922 8.73828 27.9688 8.93164 27.9219 9.13086C27.8867 9.33008 27.834 9.55273 27.7637 9.79883C27.6934 10.0332 27.5996 10.2969 27.4824 10.5898C27.377 10.8828 27.248 11.2227 27.0957 11.6094C26.9902 11.8789 26.9082 12.1074 26.8496 12.2949C26.791 12.4824 26.8027 12.6465 26.8848 12.7871C26.9902 12.9746 27.1953 13.0215 27.5 12.9277C27.8164 12.8223 28.2852 12.5176 28.9062 12.0137C29.0469 11.8965 29.2051 11.75 29.3809 11.5742C29.5566 11.3984 29.7266 11.2227 29.8906 11.0469C30.0547 10.8594 30.207 10.6836 30.3477 10.5195C30.4883 10.3555 30.6055 10.2266 30.6992 10.1328ZM38.7051 13.1914C38.7051 12.9453 38.7285 12.6641 38.7754 12.3477C38.834 12.0312 38.9043 11.709 38.9863 11.3809C39.0684 11.041 39.1504 10.7129 39.2324 10.3965C39.3145 10.0801 39.3848 9.79883 39.4434 9.55273C39.5137 9.24805 39.5078 9.01367 39.4258 8.84961C39.3438 8.68555 39.2031 8.60352 39.0039 8.60352C38.9102 8.60352 38.7227 8.68555 38.4414 8.84961C38.1719 9.01367 37.873 9.30078 37.5449 9.71094C37.2285 10.1094 36.9121 10.6543 36.5957 11.3457C36.291 12.0254 36.0508 12.8926 35.875 13.9473C35.6523 14.0645 35.4414 14.1406 35.2422 14.1758C35.1367 14.1992 35.043 14.2168 34.9609 14.2285C34.7266 14.2402 34.5742 14.1992 34.5039 14.1055C34.4336 14.0234 34.4453 13.8125 34.5391 13.4727C34.5859 13.3086 34.668 13.0449 34.7852 12.6816C34.9141 12.3184 35.0371 11.9258 35.1543 11.5039C35.2715 11.0703 35.3711 10.6426 35.4531 10.2207C35.5469 9.78711 35.5938 9.41211 35.5938 9.0957C35.5938 8.87305 35.5527 8.7207 35.4707 8.63867C35.4004 8.55664 35.2949 8.51562 35.1543 8.51562C35.0488 8.51562 34.873 8.57422 34.627 8.69141C34.3809 8.80859 34.1055 9.03711 33.8008 9.37695C33.4961 9.7168 33.1914 10.1914 32.8867 10.8008C32.5938 11.3984 32.3418 12.1777 32.1309 13.1387V13.1035C32.1074 13.1973 32.084 13.291 32.0605 13.3848C32.0371 13.4668 32.0195 13.5547 32.0078 13.6484C31.9961 13.7422 31.9785 13.8301 31.9551 13.9121L31.0762 14.2988C31.0176 14.3223 30.9414 14.3398 30.8477 14.3516C30.7656 14.3633 30.6836 14.3457 30.6016 14.2988C30.5312 14.2637 30.4785 14.1816 30.4434 14.0527C30.4082 13.9238 30.4199 13.7305 30.4785 13.4727L31.5859 8.88477C31.6211 8.73242 31.6504 8.58594 31.6738 8.44531C31.6973 8.31641 31.709 8.19336 31.709 8.07617C31.7207 7.94727 31.7148 7.8418 31.6914 7.75977C31.8906 7.66602 32.0664 7.5957 32.2188 7.54883C32.3711 7.50195 32.4941 7.4668 32.5879 7.44336C32.7051 7.4082 32.8047 7.39062 32.8867 7.39062C33.2617 7.39062 33.3848 7.71289 33.2559 8.35742C33.209 8.54492 33.1387 8.82031 33.0449 9.18359C33.2676 8.90234 33.502 8.63867 33.748 8.39258C34.0059 8.13477 34.2637 7.90625 34.5215 7.70703C34.7793 7.50781 35.0371 7.34961 35.2949 7.23242C35.5645 7.11523 35.8281 7.05664 36.0859 7.05664C36.2852 7.05664 36.4492 7.11523 36.5781 7.23242C36.7188 7.34961 36.8242 7.50781 36.8945 7.70703C36.9766 7.89453 37.0234 8.12305 37.0352 8.39258C37.0469 8.65039 37.0352 8.91992 37 9.20117C37.1875 8.95508 37.3926 8.70898 37.6152 8.46289C37.8496 8.20508 38.0898 7.97656 38.3359 7.77734C38.5938 7.57812 38.8574 7.41406 39.127 7.28516C39.3965 7.15625 39.666 7.0918 39.9355 7.0918C40.252 7.0918 40.4922 7.18555 40.6562 7.37305C40.832 7.56055 40.9492 7.80078 41.0078 8.09375C41.0781 8.38672 41.0957 8.70312 41.0605 9.04297C41.0371 9.38281 40.9902 9.71094 40.9199 10.0273L40.3223 12.4004C40.1934 12.9863 40.3164 13.2793 40.6914 13.2793C40.9844 13.2793 41.3066 13.1387 41.6582 12.8574C42.0098 12.5762 42.3496 12.2422 42.6777 11.8555C43.0176 11.4688 43.334 11.0703 43.627 10.6602C43.9199 10.25 44.166 9.92188 44.3652 9.67578C44.4355 9.59375 44.5059 9.54688 44.5762 9.53516C44.6582 9.52344 44.7227 9.54102 44.7695 9.58789C44.8281 9.62305 44.8574 9.6875 44.8574 9.78125C44.8691 9.875 44.8398 9.99219 44.7695 10.1328C44.5352 10.543 44.248 11 43.9082 11.5039C43.5684 11.9961 43.1934 12.459 42.7832 12.8926C42.3848 13.3262 41.957 13.6895 41.5 13.9824C41.043 14.2754 40.5684 14.4219 40.0762 14.4219C39.9121 14.4219 39.748 14.4043 39.584 14.3691C39.4316 14.334 39.2852 14.2695 39.1445 14.1758C39.0156 14.082 38.9102 13.959 38.8281 13.8066C38.7461 13.6426 38.7051 13.4375 38.7051 13.1914ZM51.8965 10.3438C51.5449 10.8594 51.1465 11.3633 50.7012 11.8555C50.2559 12.3359 49.7812 12.7695 49.2773 13.1562C48.7852 13.5312 48.2754 13.8359 47.748 14.0703C47.2324 14.3047 46.7285 14.4219 46.2363 14.4219C45.9785 14.4219 45.6973 14.3574 45.3926 14.2285C45.0996 14.1113 44.8301 13.9238 44.584 13.666C44.3379 13.4082 44.1387 13.0742 43.9863 12.6641C43.8457 12.2539 43.8047 11.7559 43.8633 11.1699C43.9102 10.6895 44.0566 10.1855 44.3027 9.6582C44.5605 9.11914 44.8711 8.62695 45.2344 8.18164C45.6094 7.73633 46.0254 7.36719 46.4824 7.07422C46.9512 6.78125 47.4199 6.63477 47.8887 6.63477C48.334 6.63477 48.6562 6.74609 48.8555 6.96875C49.0547 7.19141 49.1426 7.4668 49.1191 7.79492C49.084 8.1582 48.9785 8.49219 48.8027 8.79688C48.6387 9.10156 48.4395 9.37695 48.2051 9.62305C47.9707 9.86914 47.7188 10.0918 47.4492 10.291C47.1914 10.4902 46.9453 10.6719 46.7109 10.8359C46.4531 11.0117 46.207 11.1816 45.9727 11.3457C45.7383 11.498 45.5332 11.6387 45.3574 11.7676C45.3691 12.0605 45.4219 12.3066 45.5156 12.5059C45.6094 12.7051 45.7266 12.8691 45.8672 12.998C46.0078 13.1152 46.166 13.2031 46.3418 13.2617C46.5293 13.3086 46.7168 13.332 46.9043 13.332C47.3027 13.332 47.7188 13.209 48.1523 12.9629C48.5859 12.7051 49.0078 12.4004 49.418 12.0488C49.8398 11.6855 50.2266 11.3105 50.5781 10.9238C50.9414 10.5371 51.2402 10.2031 51.4746 9.92188C51.5566 9.82812 51.6387 9.77539 51.7207 9.76367C51.8145 9.74023 51.8848 9.75195 51.9316 9.79883C51.9902 9.83398 52.0195 9.9043 52.0195 10.0098C52.0195 10.1035 51.9785 10.2148 51.8965 10.3438ZM47.3965 7.63672C47.2559 7.63672 47.0859 7.70703 46.8867 7.84766C46.6992 7.98828 46.5117 8.19336 46.3242 8.46289C46.1367 8.7207 45.9609 9.04297 45.7969 9.42969C45.6328 9.80469 45.5098 10.2383 45.4277 10.7305C45.5684 10.625 45.7207 10.5195 45.8848 10.4141C46.0488 10.2969 46.2129 10.1738 46.377 10.0449C46.8809 9.6582 47.2324 9.31836 47.4316 9.02539C47.6309 8.73242 47.7422 8.48047 47.7656 8.26953C47.7891 8.04688 47.7656 7.88867 47.6953 7.79492C47.625 7.68945 47.5254 7.63672 47.3965 7.63672ZM56.7207 10.6426C56.6621 11.0059 56.6035 11.3516 56.5449 11.6797C56.498 12.0078 56.4688 12.2715 56.457 12.4707C56.4453 12.7637 56.498 12.9746 56.6152 13.1035C56.7324 13.2324 56.8613 13.2969 57.002 13.2969C57.166 13.2969 57.3652 13.2148 57.5996 13.0508C57.8457 12.8867 58.1035 12.6816 58.373 12.4355C58.6426 12.1895 58.9121 11.9199 59.1816 11.627C59.4512 11.334 59.6973 11.0586 59.9199 10.8008C60.1543 10.5312 60.3477 10.2969 60.5 10.0977C60.6641 9.89844 60.7754 9.76953 60.834 9.71094C60.9043 9.64062 60.9746 9.59961 61.0449 9.58789C61.127 9.57617 61.1914 9.58789 61.2383 9.62305C61.2852 9.6582 61.3086 9.72266 61.3086 9.81641C61.3086 9.91016 61.2617 10.0273 61.168 10.168C61.0273 10.3906 60.8457 10.6543 60.623 10.959C60.4004 11.252 60.1543 11.5566 59.8848 11.873C59.6152 12.1895 59.3281 12.5 59.0234 12.8047C58.7305 13.1094 58.4316 13.3789 58.127 13.6133C57.834 13.8477 57.5469 14.0352 57.2656 14.1758C56.9961 14.3281 56.75 14.4043 56.5273 14.4043C56.3633 14.4043 56.2051 14.3574 56.0527 14.2637C55.9121 14.1699 55.7832 14.0469 55.666 13.8945C55.5488 13.7422 55.4551 13.5723 55.3848 13.3848C55.3262 13.1973 55.3027 13.0098 55.3145 12.8223C55.3262 12.7402 55.3438 12.5996 55.3672 12.4004C54.875 12.9512 54.377 13.3906 53.873 13.7188C53.3809 14.0352 52.9062 14.1934 52.4492 14.1934C52.2852 14.1934 52.1094 14.1523 51.9219 14.0703C51.7344 13.9883 51.5645 13.8535 51.4121 13.666C51.2715 13.4785 51.1543 13.2324 51.0605 12.9277C50.9668 12.623 50.9316 12.2539 50.9551 11.8203C50.9902 11.1406 51.125 10.4961 51.3594 9.88672C51.5938 9.27734 51.8867 8.75 52.2383 8.30469C52.6016 7.84766 53.0059 7.49023 53.4512 7.23242C53.9082 6.96289 54.3652 6.82812 54.8223 6.82812C55.0215 6.82812 55.2031 6.88086 55.3672 6.98633C55.5312 7.08008 55.6719 7.20898 55.7891 7.37305C55.9062 7.52539 56 7.69531 56.0703 7.88281C56.1523 8.07031 56.2109 8.24609 56.2461 8.41016C56.3281 8.07031 56.4043 7.73633 56.4746 7.4082C56.5449 7.08008 56.6152 6.76953 56.6855 6.47656C56.8027 6.04297 56.9258 5.57422 57.0547 5.07031C57.1719 4.63672 57.3066 4.13867 57.459 3.57617C57.6113 3.01367 57.7812 2.42188 57.9688 1.80078C58.0859 1.70703 58.1973 1.63672 58.3027 1.58984C58.4082 1.54297 58.5078 1.50781 58.6016 1.48438C58.707 1.44922 58.8066 1.43164 58.9004 1.43164C59.0176 1.43164 59.123 1.44922 59.2168 1.48438C59.3105 1.50781 59.3867 1.58398 59.4453 1.71289C59.5156 1.83008 59.5625 2.01172 59.5859 2.25781C59.6094 2.50391 59.6094 2.83789 59.5859 3.25977C59.5625 3.77539 59.4688 4.33789 59.3047 4.94727C59.1523 5.55664 58.9473 6.18945 58.6895 6.8457C58.4316 7.49023 58.1328 8.14062 57.793 8.79688C57.4648 9.44141 57.1074 10.0566 56.7207 10.6426ZM55.6836 10.8711C55.7305 10.6484 55.7715 10.4258 55.8066 10.2031C55.8535 9.98047 55.9062 9.75195 55.9648 9.51758C55.9414 9.5293 55.918 9.54102 55.8945 9.55273C55.8828 9.56445 55.8652 9.57617 55.8418 9.58789C55.7129 9.64648 55.625 9.64648 55.5781 9.58789C55.5312 9.51758 55.5078 9.41211 55.5078 9.27148C55.5078 9.20117 55.502 9.07812 55.4902 8.90234C55.4785 8.71484 55.4434 8.52734 55.3848 8.33984C55.3379 8.14062 55.2617 7.9707 55.1562 7.83008C55.0508 7.67773 54.9043 7.60156 54.7168 7.60156C54.4473 7.60156 54.1719 7.74219 53.8906 8.02344C53.6094 8.29297 53.3457 8.62695 53.0996 9.02539C52.8535 9.41211 52.6484 9.82812 52.4844 10.2734C52.3203 10.7188 52.2266 11.1172 52.2031 11.4688C52.1797 12.0312 52.25 12.4355 52.4141 12.6816C52.5781 12.9277 52.8008 13.0508 53.082 13.0508C53.293 13.0508 53.5215 12.9688 53.7676 12.8047C54.0254 12.6406 54.2715 12.4414 54.5059 12.207C54.752 11.9727 54.9746 11.7324 55.1738 11.4863C55.3848 11.2402 55.5547 11.0352 55.6836 10.8711ZM67.1426 11.0645C67.3887 10.7598 67.6758 10.4082 68.0039 10.0098C68.332 9.59961 68.6777 9.17188 69.041 8.72656C69.416 8.26953 69.791 7.80078 70.166 7.32031C70.5527 6.82812 70.916 6.35352 71.2559 5.89648C71.5957 5.43945 71.9004 5.00586 72.1699 4.5957C72.4395 4.18555 72.6562 3.82227 72.8203 3.50586C72.8906 3.35352 72.9492 3.20703 72.9961 3.06641C73.043 2.9375 73.0781 2.80859 73.1016 2.67969C73.1367 2.53906 73.1426 2.4043 73.1191 2.27539C72.7793 2.27539 72.375 2.28711 71.9062 2.31055C71.4375 2.32227 70.9395 2.35742 70.4121 2.41602C69.8965 2.47461 69.375 2.5625 68.8477 2.67969C68.332 2.79687 67.8574 2.96094 67.4238 3.17188C67.3652 3.125 67.3242 3.04883 67.3008 2.94336C67.2891 2.83789 67.2949 2.7207 67.3184 2.5918C67.3301 2.46289 67.3594 2.31055 67.4062 2.13477C67.4531 1.98242 67.5059 1.8418 67.5645 1.71289C67.623 1.60742 67.6816 1.50195 67.7402 1.39648C67.8105 1.29102 67.8926 1.21484 67.9863 1.16797C68.4316 1.10937 68.8477 1.0625 69.2344 1.02734C69.6211 0.992188 69.9668 0.962891 70.2715 0.939453C70.623 0.916016 70.9453 0.904297 71.2383 0.904297C71.6484 0.916016 72.0469 0.927734 72.4336 0.939453C72.7734 0.962891 73.1309 0.986328 73.5059 1.00977C73.8926 1.02148 74.25 1.05664 74.5781 1.11523C74.6367 1.2793 74.6777 1.44922 74.7012 1.625C74.7363 1.80078 74.7598 1.95898 74.7715 2.09961C74.7832 2.26367 74.7891 2.42773 74.7891 2.5918C74.7656 3.00195 74.584 3.53516 74.2441 4.19141C73.9043 4.84766 73.4707 5.52734 72.9434 6.23047C72.7676 6.45312 72.5449 6.73438 72.2754 7.07422C72.0059 7.40234 71.7012 7.77148 71.3613 8.18164C71.0332 8.58008 70.6816 9.00781 70.3066 9.46484C69.9434 9.91016 69.5742 10.3613 69.1992 10.8184C68.8359 11.2637 68.4785 11.709 68.127 12.1543C67.7871 12.5879 67.4824 12.9922 67.2129 13.3672C66.9082 13.7773 66.6504 14.1758 66.4395 14.5625C66.2402 14.9609 66.082 15.3066 65.9648 15.5996C66.2695 15.4824 66.7383 15.3477 67.3711 15.1953C68.0039 15.0547 68.7539 14.9844 69.6211 14.9844C70.0781 14.9844 70.5059 15.002 70.9043 15.0371C71.2441 15.0605 71.5781 15.1016 71.9062 15.1602C72.2461 15.2305 72.498 15.3184 72.6621 15.4238C72.6387 15.541 72.5801 15.6816 72.4863 15.8457C72.4043 15.9863 72.2754 16.1562 72.0996 16.3555C71.9238 16.5664 71.6836 16.8066 71.3789 17.0762C70.9219 16.9824 70.4941 16.9062 70.0957 16.8477C69.6973 16.8008 69.3457 16.7656 69.041 16.7422C68.6895 16.707 68.3672 16.6895 68.0742 16.6895C67.7812 16.6895 67.4648 16.7129 67.125 16.7598C66.832 16.7949 66.498 16.8418 66.123 16.9004C65.7598 16.9707 65.373 17.0703 64.9629 17.1992C64.8457 17.1289 64.7578 17.0059 64.6992 16.8301C64.6289 16.6543 64.5762 16.4785 64.541 16.3027C64.4941 16.0918 64.459 15.8633 64.4355 15.6172C64.7402 14.9258 65.0566 14.3047 65.3848 13.7539C65.7012 13.1914 65.9941 12.7109 66.2637 12.3125C66.5684 11.8438 66.8613 11.4277 67.1426 11.0645ZM79.7715 11.2051C79.6543 11.6504 79.4961 12.0664 79.2969 12.4531C79.0977 12.8398 78.8574 13.1738 78.5762 13.4551C78.3066 13.7363 77.9961 13.9531 77.6445 14.1055C77.3047 14.2695 76.9297 14.3516 76.5195 14.3516C76.0391 14.3516 75.6582 14.2461 75.377 14.0352C75.1074 13.8359 74.9023 13.584 74.7617 13.2793C74.6328 12.9746 74.5566 12.6406 74.5332 12.2773C74.498 11.9141 74.4805 11.5742 74.4805 11.2578C74.4805 11.0352 74.5098 10.7891 74.5684 10.5195C74.6152 10.25 74.6855 9.97461 74.7793 9.69336C74.873 9.41211 74.9902 9.13086 75.1309 8.84961C75.2832 8.56836 75.459 8.31055 75.6582 8.07617C75.7285 7.87695 75.834 7.70117 75.9746 7.54883C76.127 7.39648 76.2969 7.27344 76.4844 7.17969C76.6836 7.07422 76.8945 6.99805 77.1172 6.95117C77.3398 6.89258 77.5566 6.86328 77.7676 6.86328C77.8027 6.86328 77.832 6.86914 77.8555 6.88086C77.8906 6.89258 77.9258 6.9043 77.9609 6.91602C78.1133 6.92773 78.3008 6.98633 78.5234 7.0918C78.7578 7.19727 78.9805 7.35547 79.1914 7.56641C79.4141 7.77734 79.6016 8.04688 79.7539 8.375C79.9062 8.69141 79.9824 9.07812 79.9824 9.53516C79.9824 9.62891 79.9766 9.74609 79.9648 9.88672C79.9531 10.0156 79.9414 10.127 79.9297 10.2207C80.1992 10.1152 80.4805 9.98633 80.7734 9.83398C81.0664 9.68164 81.3477 9.52344 81.6172 9.35938C81.8984 9.18359 82.1562 9.00781 82.3906 8.83203C82.625 8.65625 82.8125 8.49805 82.9531 8.35742C83.0703 8.25195 83.1699 8.19336 83.252 8.18164C83.334 8.16992 83.3926 8.19336 83.4277 8.25195C83.4629 8.31055 83.4688 8.39258 83.4453 8.49805C83.4219 8.60352 83.3574 8.7207 83.252 8.84961C83.1934 8.91992 83.041 9.06055 82.7949 9.27148C82.5605 9.48242 82.2793 9.71094 81.9512 9.95703C81.623 10.2031 81.2656 10.4434 80.8789 10.6777C80.4922 10.9121 80.123 11.0879 79.7715 11.2051ZM76.8008 8.5332C76.7656 8.63867 76.748 8.75 76.748 8.86719C76.748 9.05469 76.7598 9.25391 76.7832 9.46484C76.8066 9.66406 76.8652 9.8457 76.959 10.0098C77.0527 10.1738 77.1992 10.3145 77.3984 10.4316C77.6094 10.5371 77.8965 10.5898 78.2598 10.5898C78.3184 10.5898 78.377 10.5898 78.4355 10.5898C78.4941 10.5781 78.5527 10.5664 78.6113 10.5547C78.6465 10.4023 78.6758 10.2676 78.6992 10.1504C78.7344 10.0215 78.752 9.91016 78.752 9.81641C78.7754 9.59375 78.7754 9.36523 78.752 9.13086C78.7285 8.89648 78.6816 8.68555 78.6113 8.49805C78.5527 8.29883 78.4707 8.14062 78.3652 8.02344C78.2715 7.89453 78.1543 7.83008 78.0137 7.83008C77.791 7.83008 77.5742 7.89453 77.3633 8.02344C77.1641 8.14062 76.9766 8.31055 76.8008 8.5332ZM75.6758 11.627C75.6758 11.8379 75.6875 12.0488 75.7109 12.2598C75.7344 12.459 75.7812 12.6406 75.8516 12.8047C75.9219 12.957 76.0156 13.0859 76.1328 13.1914C76.25 13.2852 76.4023 13.332 76.5898 13.332C76.8008 13.332 76.9941 13.2852 77.1699 13.1914C77.3457 13.0859 77.5039 12.957 77.6445 12.8047C77.7852 12.6406 77.9082 12.459 78.0137 12.2598C78.1309 12.0488 78.2305 11.832 78.3125 11.6094C78.2305 11.6211 78.1484 11.6328 78.0664 11.6445C77.9961 11.6445 77.9141 11.6445 77.8203 11.6445C77.375 11.6445 76.9883 11.5156 76.6602 11.2578C76.3438 10.9883 76.0977 10.6484 75.9219 10.2383C75.8516 10.4844 75.793 10.7246 75.7461 10.959C75.6992 11.1934 75.6758 11.416 75.6758 11.627ZM84.332 14.2812C83.8867 14.2812 83.5234 14.2109 83.2422 14.0703C82.9609 13.9297 82.7383 13.7598 82.5742 13.5605C82.4219 13.3496 82.3105 13.127 82.2402 12.8926C82.1816 12.6465 82.1523 12.4238 82.1523 12.2246C82.1523 11.873 82.1816 11.5039 82.2402 11.1172C82.2988 10.7188 82.3691 10.3555 82.4512 10.0273C82.5332 9.6875 82.6035 9.40039 82.6621 9.16602C82.7324 8.93164 82.7793 8.78516 82.8027 8.72656C82.9082 8.38672 83.043 8.09375 83.207 7.84766C83.3828 7.58984 83.623 7.41406 83.9277 7.32031C84.0449 7.29688 84.168 7.27344 84.2969 7.25C84.4023 7.23828 84.5078 7.23242 84.6133 7.23242C84.7305 7.23242 84.8359 7.25 84.9297 7.28516C84.6133 8.09375 84.3613 8.76758 84.1738 9.30664C83.998 9.8457 83.8633 10.2852 83.7695 10.625C83.6641 11.0117 83.5996 11.3223 83.5762 11.5566C83.5176 12.084 83.5645 12.4824 83.7168 12.752C83.8691 13.0215 84.1797 13.1562 84.6484 13.1562C84.9531 13.1562 85.2461 13.0449 85.5273 12.8223C85.8086 12.5879 86.0664 12.2891 86.3008 11.9258C86.2656 11.7383 86.248 11.5449 86.248 11.3457C86.248 10.9707 86.2773 10.6074 86.3359 10.2559C86.4062 9.89258 86.4824 9.55859 86.5645 9.25391C86.6582 8.9375 86.752 8.65625 86.8457 8.41016C86.9512 8.16406 87.0391 7.9707 87.1094 7.83008C87.2383 7.54883 87.3555 7.37891 87.4609 7.32031C87.5664 7.25 87.7363 7.20898 87.9707 7.19727C88.0645 7.18555 88.1406 7.18555 88.1992 7.19727C88.2695 7.19727 88.3281 7.20312 88.375 7.21484C88.5156 7.25 88.5859 7.32031 88.5859 7.42578C88.5859 7.61328 88.5742 7.89453 88.5508 8.26953C88.5273 8.64453 88.457 9.03125 88.3398 9.42969C88.2578 9.75781 88.1758 10.0391 88.0938 10.2734C88.0234 10.4961 87.9531 10.6895 87.8828 10.8535C87.8125 11.0059 87.7422 11.1348 87.6719 11.2402C87.6016 11.334 87.5371 11.4219 87.4785 11.5039C87.502 11.8555 87.5312 12.1367 87.5664 12.3477C87.6016 12.5586 87.6426 12.7227 87.6895 12.8398C87.748 12.9453 87.8125 13.0215 87.8828 13.0684C87.9648 13.1035 88.0527 13.1211 88.1465 13.1211C88.3105 13.1211 88.5039 13.0449 88.7266 12.8926C88.9492 12.7285 89.1777 12.5293 89.4121 12.2949C89.6582 12.0488 89.8984 11.7852 90.1328 11.5039C90.3789 11.2109 90.6016 10.9355 90.8008 10.6777C91 10.4199 91.1699 10.1973 91.3105 10.0098C91.4512 9.81055 91.5391 9.6875 91.5742 9.64062C91.6562 9.53516 91.7324 9.4707 91.8027 9.44727C91.8848 9.42383 91.9492 9.43555 91.9961 9.48242C92.043 9.51758 92.0664 9.58203 92.0664 9.67578C92.0781 9.75781 92.0547 9.85156 91.9961 9.95703C91.7617 10.4023 91.4688 10.877 91.1172 11.3809C90.7773 11.873 90.4082 12.3301 90.0098 12.752C89.623 13.1738 89.2305 13.5254 88.832 13.8066C88.4336 14.0879 88.0586 14.2285 87.707 14.2285C87.3906 14.2285 87.1387 14.123 86.9512 13.9121C86.7754 13.6895 86.623 13.373 86.4941 12.9629C86.2246 13.3848 85.9082 13.7129 85.5449 13.9473C85.1816 14.1699 84.7773 14.2812 84.332 14.2812ZM95.7305 16.5137C95.6719 16.7949 95.5957 17.1465 95.502 17.5684C95.4199 17.9902 95.3203 18.4355 95.2031 18.9043C95.0977 19.373 94.9688 19.8359 94.8164 20.293C94.6758 20.7617 94.5176 21.1777 94.3418 21.541C94.166 21.916 93.9727 22.2207 93.7617 22.4551C93.5508 22.6895 93.3164 22.8066 93.0586 22.8066C92.6719 22.8066 92.3379 22.6895 92.0566 22.4551C91.7871 22.2324 91.5586 21.9453 91.3711 21.5938C91.1836 21.2539 91.0488 20.8848 90.9668 20.4863C90.873 20.0879 90.8262 19.7188 90.8262 19.3789C90.8262 18.9102 90.8672 18.5176 90.9492 18.2012C91.0312 17.8965 91.1719 17.6035 91.3711 17.3223C91.582 17.041 91.8633 16.7422 92.2148 16.4258C92.5664 16.1094 93.0176 15.7168 93.5684 15.248C93.8379 15.0137 94.0957 14.791 94.3418 14.5801C94.5879 14.3691 94.8223 14.1758 95.0449 14C95.1035 13.7656 95.1562 13.5488 95.2031 13.3496C95.2617 13.1387 95.3086 12.9512 95.3438 12.7871C95.0391 13.1973 94.6699 13.543 94.2363 13.8242C93.8145 14.1055 93.3281 14.2461 92.7773 14.2461C92.2734 14.2461 91.8633 14.0234 91.5469 13.5781C91.2422 13.1211 91.0898 12.4531 91.0898 11.5742C91.0898 11.1406 91.1719 10.6426 91.3359 10.0801C91.5 9.51758 91.7344 8.99023 92.0391 8.49805C92.3438 8.00586 92.7188 7.58984 93.1641 7.25C93.6094 6.91016 94.1074 6.74023 94.6582 6.74023C94.916 6.74023 95.1387 6.80469 95.3262 6.93359C95.5137 7.0625 95.6719 7.22656 95.8008 7.42578C95.9297 7.61328 96.0293 7.81836 96.0996 8.04102C96.1699 8.25195 96.2227 8.45117 96.2578 8.63867C96.2812 8.56836 96.2988 8.49805 96.3105 8.42773C96.3223 8.3457 96.3398 8.27539 96.3633 8.2168C96.4805 7.81836 96.6094 7.54883 96.75 7.4082C96.9023 7.25586 97.125 7.17969 97.418 7.17969C97.582 7.17969 97.7168 7.20898 97.8223 7.26758C97.9395 7.32617 97.998 7.37891 97.998 7.42578C97.9395 7.55469 97.8926 7.6543 97.8574 7.72461C97.8223 7.79492 97.7871 7.87109 97.752 7.95312C97.7168 8.02344 97.6816 8.11719 97.6465 8.23438C97.6113 8.35156 97.5645 8.52148 97.5059 8.74414C97.4824 8.82617 97.4355 9.01953 97.3652 9.32422C97.3066 9.61719 97.2246 9.96875 97.1191 10.3789C97.0254 10.7891 96.9199 11.2402 96.8027 11.7324C96.6973 12.2246 96.5918 12.7051 96.4863 13.1738C96.8145 12.9863 97.1543 12.7578 97.5059 12.4883C97.8574 12.2188 98.1914 11.9434 98.5078 11.6621C98.8242 11.3809 99.1055 11.1172 99.3516 10.8711C99.5977 10.6133 99.7793 10.4023 99.8965 10.2383C99.9902 10.0977 100.096 9.99805 100.213 9.93945C100.33 9.88086 100.43 9.86328 100.512 9.88672C100.605 9.89844 100.658 9.95117 100.67 10.0449C100.693 10.127 100.658 10.2441 100.564 10.3965C100.295 10.8301 99.9668 11.252 99.5801 11.6621C99.1934 12.0605 98.7949 12.4355 98.3848 12.7871C97.9863 13.127 97.5938 13.4316 97.207 13.7012C96.832 13.959 96.5098 14.1699 96.2402 14.334C96.123 14.8613 96.0234 15.2891 95.9414 15.6172C95.8594 15.9453 95.7891 16.2441 95.7305 16.5137ZM93.5156 13.0508C93.7617 13.0508 93.9902 12.9863 94.2012 12.8574C94.4238 12.7285 94.623 12.582 94.7988 12.418C94.9746 12.2422 95.1211 12.0664 95.2383 11.8906C95.3555 11.7148 95.4434 11.5742 95.502 11.4688C95.5488 11.3633 95.6016 11.2227 95.6602 11.0469C95.7305 10.8711 95.7832 10.7012 95.8184 10.5371C95.8535 10.373 95.8652 10.2266 95.8535 10.0977C95.8535 9.96875 95.8125 9.89844 95.7305 9.88672C95.6602 9.875 95.6016 9.82812 95.5547 9.74609C95.5195 9.66406 95.4902 9.57031 95.4668 9.46484C95.4434 9.35938 95.4258 9.25391 95.4141 9.14844C95.4141 9.04297 95.4082 8.94922 95.3965 8.86719C95.3379 8.45703 95.2383 8.1582 95.0977 7.9707C94.957 7.7832 94.7988 7.68945 94.623 7.68945C94.3301 7.68945 94.0488 7.80664 93.7793 8.04102C93.5215 8.27539 93.2871 8.58008 93.0762 8.95508C92.877 9.31836 92.7188 9.72266 92.6016 10.168C92.4844 10.6016 92.4258 11.0176 92.4258 11.416C92.4258 11.9082 92.4961 12.3066 92.6367 12.6113C92.7773 12.9043 93.0703 13.0508 93.5156 13.0508ZM92.707 21.207C92.9414 21.207 93.1289 21.0312 93.2695 20.6797C93.4219 20.3398 93.5801 19.8711 93.7441 19.2734C93.7793 19.1328 93.8262 18.9277 93.8848 18.6582C93.9551 18.4004 94.0312 18.1016 94.1133 17.7617C94.207 17.4219 94.3008 17.0527 94.3945 16.6543C94.4883 16.2676 94.5879 15.875 94.6934 15.4766C94.5996 15.5586 94.5 15.6406 94.3945 15.7227C94.3008 15.8164 94.2012 15.9219 94.0957 16.0391C93.8379 16.2852 93.5859 16.5195 93.3398 16.7422C93.1055 16.9766 92.8945 17.2168 92.707 17.4629C92.5195 17.7207 92.3672 17.9961 92.25 18.2891C92.1445 18.582 92.0918 18.9219 92.0918 19.3086C92.0918 19.6953 92.1035 20.0117 92.127 20.2578C92.1621 20.5039 92.2031 20.6973 92.25 20.8379C92.3086 20.9785 92.373 21.0723 92.4434 21.1191C92.5254 21.1777 92.6133 21.207 92.707 21.207ZM108.887 10.502C108.723 10.7363 108.512 11.0293 108.254 11.3809C107.996 11.7207 107.727 12.0664 107.445 12.418C107.176 12.7578 106.906 13.0742 106.637 13.3672C106.379 13.6484 106.162 13.8477 105.986 13.9648C105.869 14.0352 105.734 14.0938 105.582 14.1406C105.43 14.1875 105.271 14.2168 105.107 14.2285C104.955 14.2402 104.809 14.2285 104.668 14.1934C104.527 14.1699 104.404 14.123 104.299 14.0527C104.193 13.9707 104.105 13.8535 104.035 13.7012C103.977 13.5723 103.918 13.4023 103.859 13.1914C103.812 12.9805 103.795 12.7168 103.807 12.4004C103.525 12.8691 103.215 13.2324 102.875 13.4902C102.535 13.7363 102.213 13.918 101.908 14.0352C101.557 14.1641 101.205 14.2402 100.854 14.2637C100.689 14.2637 100.514 14.2051 100.326 14.0879C100.139 13.9824 99.9805 13.8125 99.8516 13.5781C99.7227 13.332 99.6406 13.0215 99.6055 12.6465C99.5703 12.2598 99.6172 11.8027 99.7461 11.2754C99.9102 10.5605 100.168 9.91016 100.52 9.32422C100.883 8.73828 101.275 8.24023 101.697 7.83008C102.119 7.4082 102.535 7.0918 102.945 6.88086C103.355 6.66992 103.695 6.57617 103.965 6.59961C104.281 6.6582 104.539 6.75195 104.738 6.88086C104.902 6.99805 105.008 7.17383 105.055 7.4082C105.113 7.63086 105.02 7.92969 104.773 8.30469C104.938 8.26953 105.072 8.24609 105.178 8.23438C105.295 8.22266 105.383 8.2168 105.441 8.2168C105.512 8.2168 105.559 8.22266 105.582 8.23438C105.594 8.25781 105.6 8.31055 105.6 8.39258C105.6 8.46289 105.582 8.59766 105.547 8.79688C105.512 8.99609 105.459 9.26562 105.389 9.60547C105.318 9.94531 105.225 10.3848 105.107 10.9238C105.084 11.0293 105.061 11.1289 105.037 11.2227C105.025 11.3047 105.008 11.3926 104.984 11.4863C104.973 11.5684 104.955 11.668 104.932 11.7852C104.908 11.9023 104.879 12.0488 104.844 12.2246C104.832 12.3301 104.826 12.4473 104.826 12.5762C104.838 12.6934 104.861 12.8047 104.896 12.9102C104.932 13.0156 104.984 13.1035 105.055 13.1738C105.137 13.2324 105.248 13.2617 105.389 13.2617C105.506 13.2617 105.658 13.1914 105.846 13.0508C106.033 12.8984 106.232 12.7109 106.443 12.4883C106.654 12.2539 106.871 12.002 107.094 11.7324C107.328 11.4512 107.545 11.1816 107.744 10.9238C107.943 10.666 108.119 10.4375 108.271 10.2383C108.436 10.0391 108.553 9.89258 108.623 9.79883C108.717 9.69336 108.811 9.63477 108.904 9.62305C108.998 9.59961 109.068 9.62305 109.115 9.69336C109.162 9.76367 109.168 9.86914 109.133 10.0098C109.109 10.1504 109.027 10.3145 108.887 10.502ZM103.736 11.2754C103.795 11.041 103.865 10.7656 103.947 10.4492C104.029 10.1328 104.1 9.82812 104.158 9.53516C104.217 9.24219 104.258 9.00195 104.281 8.81445C104.316 8.61523 104.311 8.52148 104.264 8.5332C104.205 8.54492 104.141 8.5625 104.07 8.58594C104.012 8.60938 103.936 8.62695 103.842 8.63867C103.748 8.65039 103.654 8.66797 103.561 8.69141C103.654 8.50391 103.707 8.35156 103.719 8.23438C103.742 8.10547 103.748 8.00586 103.736 7.93555C103.725 7.85352 103.701 7.78906 103.666 7.74219C103.537 7.63672 103.309 7.72461 102.98 8.00586C102.664 8.27539 102.295 8.7793 101.873 9.51758C101.697 9.82227 101.557 10.1504 101.451 10.502C101.346 10.8418 101.27 11.1641 101.223 11.4688C101.188 11.7734 101.182 12.043 101.205 12.2773C101.229 12.5 101.275 12.6465 101.346 12.7168C101.475 12.8457 101.621 12.9102 101.785 12.9102C101.949 12.8984 102.113 12.8516 102.277 12.7695C102.453 12.6758 102.623 12.5586 102.787 12.418C102.963 12.2773 103.115 12.1309 103.244 11.9785C103.385 11.8262 103.496 11.6855 103.578 11.5566C103.672 11.4277 103.725 11.334 103.736 11.2754ZM107.541 13.9121C107.459 14.041 107.371 14.123 107.277 14.1582C107.172 14.2051 107.084 14.2109 107.014 14.1758C106.932 14.1523 106.879 14.0938 106.855 14C106.832 13.9062 106.855 13.7891 106.926 13.6484C106.961 13.5781 107.043 13.4199 107.172 13.1738C107.289 12.9277 107.436 12.6348 107.611 12.2949C107.775 11.9434 107.957 11.5684 108.156 11.1699C108.355 10.7598 108.543 10.373 108.719 10.0098C108.906 9.64648 109.076 9.32422 109.229 9.04297C109.381 8.75 109.492 8.53906 109.562 8.41016C109.434 8.29297 109.346 8.21094 109.299 8.16406C109.252 8.10547 109.217 7.98828 109.193 7.8125C109.17 7.66016 109.205 7.46094 109.299 7.21484C109.393 6.96875 109.516 6.73438 109.668 6.51172C109.82 6.27734 109.99 6.07812 110.178 5.91406C110.365 5.75 110.547 5.66797 110.723 5.66797C111.051 5.66797 111.279 5.77344 111.408 5.98438C111.549 6.19531 111.631 6.41211 111.654 6.63477C111.678 6.78711 111.666 6.98047 111.619 7.21484C111.572 7.44922 111.484 7.66016 111.355 7.84766C111.391 7.87109 111.438 7.90039 111.496 7.93555C111.555 7.95898 111.648 7.9707 111.777 7.9707C111.965 7.9707 112.094 7.95898 112.164 7.93555C112.246 7.91211 112.369 7.90039 112.533 7.90039C112.732 7.90039 112.896 7.95312 113.025 8.05859C113.154 8.15234 113.26 8.27539 113.342 8.42773C113.424 8.56836 113.482 8.72656 113.518 8.90234C113.564 9.06641 113.594 9.21875 113.605 9.35938C113.641 9.65234 113.564 9.95703 113.377 10.2734C113.189 10.5898 112.961 10.9355 112.691 11.3105C112.527 11.5449 112.363 11.8086 112.199 12.1016C112.035 12.3945 111.965 12.6582 111.988 12.8926C112.012 13.0449 112.053 13.168 112.111 13.2617C112.17 13.3555 112.334 13.4023 112.604 13.4023C112.803 13.4023 113.02 13.332 113.254 13.1914C113.5 13.0391 113.746 12.8516 113.992 12.6289C114.25 12.3945 114.502 12.1426 114.748 11.873C114.994 11.5918 115.223 11.3223 115.434 11.0645C115.645 10.7949 115.82 10.5547 115.961 10.3438C116.113 10.1328 116.225 9.98047 116.295 9.88672C116.354 9.79297 116.43 9.72852 116.523 9.69336C116.617 9.6582 116.699 9.6582 116.77 9.69336C116.84 9.72852 116.881 9.79883 116.893 9.9043C116.916 10.0098 116.875 10.1504 116.77 10.3262C116.699 10.4434 116.576 10.6309 116.4 10.8887C116.236 11.1465 116.031 11.4336 115.785 11.75C115.551 12.0664 115.287 12.3945 114.994 12.7344C114.701 13.0625 114.391 13.3672 114.062 13.6484C113.746 13.918 113.424 14.1406 113.096 14.3164C112.779 14.4922 112.475 14.5801 112.182 14.5801C111.877 14.5801 111.625 14.5215 111.426 14.4043C111.227 14.2871 111.062 14.1465 110.934 13.9824C110.816 13.8066 110.729 13.6191 110.67 13.4199C110.623 13.209 110.605 13.0156 110.617 12.8398C110.629 12.6992 110.664 12.5527 110.723 12.4004C110.793 12.2363 110.869 12.0723 110.951 11.9082C111.045 11.7324 111.139 11.5625 111.232 11.3984C111.338 11.2227 111.432 11.0527 111.514 10.8887C111.713 10.5488 111.871 10.2617 111.988 10.0273C112.117 9.78125 112.182 9.57617 112.182 9.41211C112.182 9.30664 112.158 9.21289 112.111 9.13086C112.064 9.04883 111.988 9.00781 111.883 9.00781C111.812 9.00781 111.76 9.01367 111.725 9.02539C111.701 9.02539 111.672 9.02539 111.637 9.02539C111.613 9.02539 111.572 9.03125 111.514 9.04297C111.467 9.04297 111.391 9.04297 111.285 9.04297C111.133 9.04297 111.004 9.01953 110.898 8.97266C110.793 8.92578 110.693 8.89062 110.6 8.86719C110.553 8.94922 110.447 9.125 110.283 9.39453C110.119 9.66406 109.926 9.98047 109.703 10.3438C109.492 10.707 109.264 11.0879 109.018 11.4863C108.783 11.8848 108.561 12.2598 108.35 12.6113C108.139 12.9512 107.963 13.2441 107.822 13.4902C107.67 13.7246 107.576 13.8652 107.541 13.9121ZM119.889 3.64648C119.854 3.77539 119.783 3.9043 119.678 4.0332C119.584 4.15039 119.473 4.25 119.344 4.33203C119.227 4.40234 119.104 4.44922 118.975 4.47266C118.846 4.49609 118.74 4.47266 118.658 4.40234C118.412 4.21484 118.283 4.01562 118.271 3.80469C118.26 3.58203 118.312 3.37695 118.43 3.18945C118.547 2.99023 118.693 2.82617 118.869 2.69727C119.045 2.55664 119.197 2.47461 119.326 2.45117C119.455 2.42773 119.561 2.45703 119.643 2.53906C119.736 2.60938 119.807 2.70898 119.854 2.83789C119.9 2.95508 119.924 3.08984 119.924 3.24219C119.936 3.39453 119.924 3.5293 119.889 3.64648ZM117.463 7.39062C117.521 7.32031 117.633 7.26172 117.797 7.21484C117.961 7.16797 118.131 7.13281 118.307 7.10938C118.482 7.07422 118.641 7.05664 118.781 7.05664C118.934 7.04492 119.021 7.04492 119.045 7.05664C119.057 7.06836 119.027 7.19141 118.957 7.42578C118.887 7.66016 118.799 7.93555 118.693 8.25195C118.588 8.56836 118.477 8.89648 118.359 9.23633C118.242 9.56445 118.154 9.83398 118.096 10.0449C118.037 10.2559 117.967 10.4961 117.885 10.7656C117.803 11.0234 117.727 11.2812 117.656 11.5391C117.598 11.7852 117.557 12.0195 117.533 12.2422C117.51 12.4648 117.527 12.6348 117.586 12.752C117.645 12.8926 117.709 12.9922 117.779 13.0508C117.85 13.0977 117.926 13.1211 118.008 13.1211C118.242 13.1211 118.535 12.9922 118.887 12.7344C119.25 12.4766 119.613 12.1719 119.977 11.8203C120.352 11.457 120.697 11.0938 121.014 10.7305C121.33 10.3555 121.564 10.0566 121.717 9.83398C121.811 9.7168 121.904 9.64062 121.998 9.60547C122.104 9.57031 122.186 9.57617 122.244 9.62305C122.314 9.66992 122.35 9.74609 122.35 9.85156C122.361 9.95703 122.326 10.0801 122.244 10.2207C122.057 10.5488 121.781 10.9414 121.418 11.3984C121.055 11.8438 120.668 12.2773 120.258 12.6992C119.848 13.1094 119.443 13.4609 119.045 13.7539C118.658 14.0469 118.342 14.1992 118.096 14.2109C117.896 14.2227 117.697 14.1875 117.498 14.1055C117.311 14.0352 117.135 13.9355 116.971 13.8066C116.818 13.666 116.689 13.5078 116.584 13.332C116.479 13.1445 116.42 12.9512 116.408 12.752C116.373 12.459 116.373 12.0605 116.408 11.5566C116.443 11.041 116.508 10.5195 116.602 9.99219C116.695 9.45312 116.812 8.94336 116.953 8.46289C117.105 7.98242 117.275 7.625 117.463 7.39062ZM133.281 0.833984C133.574 0.775391 133.768 0.757812 133.861 0.78125C133.967 0.792969 134.008 0.828125 133.984 0.886719C133.926 0.980469 133.797 1.19141 133.598 1.51953C133.398 1.84766 133.152 2.25781 132.859 2.75C132.566 3.23047 132.238 3.76953 131.875 4.36719C131.523 4.96484 131.166 5.57422 130.803 6.19531C130.451 6.81641 130.111 7.42578 129.783 8.02344C129.467 8.62109 129.191 9.16602 128.957 9.6582C128.664 10.209 128.389 10.748 128.131 11.2754C127.908 11.7207 127.68 12.1953 127.445 12.6992C127.211 13.1914 127.023 13.6074 126.883 13.9473C126.695 14.041 126.531 14.1055 126.391 14.1406C126.238 14.1875 126.104 14.2227 125.986 14.2461C125.857 14.2695 125.734 14.2812 125.617 14.2812C125.383 14.2812 125.254 14.252 125.23 14.1934C125.195 14.1348 125.219 14.0293 125.301 13.877C125.383 13.7363 125.588 13.3672 125.916 12.7695C126.057 12.5117 126.232 12.1953 126.443 11.8203C126.654 11.4336 126.912 10.9648 127.217 10.4141C127.521 9.86328 127.879 9.22461 128.289 8.49805C128.699 7.75977 129.168 6.91602 129.695 5.9668L132.104 1.66016C132.221 1.42578 132.355 1.25586 132.508 1.15039C132.672 1.0332 132.93 0.927734 133.281 0.833984ZM134.678 4.92969C134.689 4.95313 134.76 5.07031 134.889 5.28125C135.018 5.49219 135.17 5.75 135.346 6.05469C135.533 6.35938 135.727 6.69922 135.926 7.07422C136.137 7.4375 136.33 7.78906 136.506 8.12891C136.529 8.1875 136.559 8.25781 136.594 8.33984C136.641 8.41016 136.664 8.46289 136.664 8.49805C136.664 8.50977 136.652 8.5332 136.629 8.56836C136.605 8.5918 136.576 8.62695 136.541 8.67383C136.506 8.7207 136.453 8.77344 136.383 8.83203L133.289 11.4336C133.207 11.4922 133.125 11.5508 133.043 11.6094C132.973 11.6562 132.885 11.6973 132.779 11.7324C132.674 11.7676 132.545 11.8027 132.393 11.8379C132.24 11.8613 132.053 11.8848 131.83 11.9082C131.643 11.9316 131.496 11.9434 131.391 11.9434C131.285 11.9316 131.209 11.9199 131.162 11.9082C131.104 11.8848 131.068 11.8613 131.057 11.8379C131.045 11.8145 131.051 11.7969 131.074 11.7852C131.145 11.7266 131.309 11.5859 131.566 11.3633C131.824 11.1289 132.141 10.8477 132.516 10.5195C132.891 10.1914 133.295 9.82812 133.729 9.42969C134.162 9.03125 134.59 8.63281 135.012 8.23438C134.941 8.11719 134.865 8 134.783 7.88281C134.713 7.75391 134.654 7.64258 134.607 7.54883C134.408 7.19727 134.209 6.85742 134.01 6.5293C133.846 6.24805 133.67 5.95508 133.482 5.65039C133.307 5.33398 133.148 5.05859 133.008 4.82422C133.055 4.78906 133.125 4.76562 133.219 4.75391C133.312 4.73047 133.406 4.71289 133.5 4.70117C133.617 4.68945 133.74 4.68359 133.869 4.68359C134.162 4.68359 134.355 4.70117 134.449 4.73633C134.543 4.77148 134.619 4.83594 134.678 4.92969Z"/></svg>